Results
version=1
nRows=23
nColumns=21
inDegrees=yes
endheader
time	sternoclavicular_r2	sternoclavicular_r3	unrotscap_r3	unrotscap_r2	acromioclavicular_r2	acromioclavicular_r3	acromioclavicular_r1	unrothum_r1	unrothum_r3	unrothum_r2	elv_angle	shoulder_elv	shoulder1_r2	shoulder_rot	elbow_flexion	pro_sup	deviation	flexion	wrist_hand_r1	wrist_hand_r3	
2.5	-11.536	4.886	-4.8865	11.537	-2.3356	18.878	8.4857	-8.4853	-18.878	2.336	72.385	47.671	-72.385	1.4935	25.93	43.309	-5.5998e-07	-8.6449e-06	-9.8045e-06	-1.2689e-05
2.505	-11.536	4.8858	-4.8864	11.536	-2.3355	18.877	8.4854	-8.485	-18.877	2.3359	72.384	47.669	-72.384	1.4904	25.947	43.311	-1.3184e-06	-8.7469e-06	-8.1148e-06	-1.2751e-05
2.51	-11.535	4.8856	-4.8861	11.536	-2.3354	18.876	8.485	-8.4846	-18.876	2.3358	72.383	47.667	-72.383	1.4867	25.967	43.313	-1.2881e-06	-8.8531e-06	-5.9799e-06	-1.2817e-05
2.515	-11.534	4.8853	-4.8858	11.535	-2.3353	18.875	8.4845	-8.4841	-18.875	2.3357	72.382	47.664	-72.382	1.4824	25.99	43.316	-8.3752e-07	-8.9582e-06	-1.9787e-06	-1.2883e-05
2.52	-11.534	4.885	-4.8855	11.534	-2.3351	18.874	8.4839	-8.4835	-18.874	2.3355	72.38	47.661	-72.38	1.4776	26.016	43.319	-9.2382e-07	-9.0772e-06	2.4624e-07	-1.296e-05
2.525	-11.533	4.8846	-4.8851	11.533	-2.335	18.872	8.4833	-8.4829	-18.872	2.3353	72.378	47.658	-72.378	1.4723	26.046	43.322	-1.6203e-06	-9.194e-06	1.9611e-06	-1.3035e-05
2.53	-11.532	4.8842	-4.8847	11.532	-2.3348	18.871	8.4826	-8.4822	-18.871	2.3351	72.376	47.654	-72.376	1.4665	26.079	43.326	-2.024e-06	-9.3115e-06	3.6541e-06	-1.3113e-05
2.535	-11.531	4.8838	-4.8843	11.531	-2.3346	18.869	8.4818	-8.4814	-18.869	2.3349	72.373	47.649	-72.373	1.4602	26.116	43.33	-2.5978e-06	-9.4303e-06	5.3548e-06	-1.3194e-05
2.54	-11.529	4.8832	-4.8836	11.53	-2.3343	18.867	8.4807	-8.4803	-18.867	2.3346	72.368	47.643	-72.368	1.4533	26.16	43.334	-3.4398e-06	-9.5452e-06	6.4828e-06	-1.3271e-05
2.545	-11.528	4.8824	-4.8828	11.528	-2.3339	18.864	8.4793	-8.4789	-18.864	2.3342	72.361	47.635	-72.361	1.4461	26.21	43.34	-4.4253e-06	-9.6103e-06	7.7625e-06	-1.3402e-05
2.55	-11.525	4.8814	-4.8818	11.526	-2.3335	18.86	8.4776	-8.4772	-18.86	2.3337	72.352	47.626	-72.352	1.4385	26.268	43.346	-4.5571e-06	-9.6463e-06	9.4702e-06	-1.3546e-05
2.555	-11.522	4.8802	-4.8807	11.523	-2.3329	18.855	8.4755	-8.4752	-18.855	2.3332	72.341	47.614	-72.341	1.4306	26.332	43.353	-5.5743e-06	-9.6934e-06	1.0198e-05	-1.3687e-05
2.56	-11.519	4.8788	-4.8793	11.52	-2.3322	18.85	8.4731	-8.4728	-18.85	2.3325	72.328	47.601	-72.328	1.4225	26.405	43.361	-6.6147e-06	-9.7573e-06	1.0915e-05	-1.3813e-05
2.565	-11.515	4.8772	-4.8776	11.516	-2.3315	18.844	8.4703	-8.47	-18.844	2.3317	72.314	47.585	-72.314	1.4142	26.487	43.37	-7.4378e-06	-9.8185e-06	1.1538e-05	-1.3938e-05
2.57	-11.511	4.8754	-4.8758	11.511	-2.3306	18.836	8.4671	-8.4668	-18.837	2.3308	72.298	47.567	-72.298	1.4057	26.576	43.38	-8.4725e-06	-9.878e-06	1.1813e-05	-1.4061e-05
2.575	-11.506	4.8733	-4.8737	11.507	-2.3296	18.829	8.4635	-8.4633	-18.829	2.3298	72.279	47.547	-72.279	1.3969	26.675	43.39	-9.1806e-06	-9.9372e-06	1.2187e-05	-1.418e-05
2.58	-11.501	4.8711	-4.8715	11.501	-2.3286	18.82	8.4596	-8.4594	-18.82	2.3287	72.259	47.525	-72.259	1.3879	26.781	43.402	-1.0222e-05	-9.9974e-06	1.2239e-05	-1.4301e-05
2.585	-11.495	4.8685	-4.8689	11.495	-2.3273	18.81	8.455	-8.4548	-18.81	2.3275	72.236	47.499	-72.236	1.378	26.899	43.414	-1.1236e-05	-1.0037e-05	1.232e-05	-1.4435e-05
2.59	-11.488	4.8655	-4.8659	11.488	-2.3259	18.798	8.4498	-8.4496	-18.798	2.326	72.21	47.47	-72.21	1.3672	27.028	43.426	-1.2065e-05	-1.0077e-05	1.2207e-05	-1.4569e-05
2.595	-11.48	4.8621	-4.8625	11.48	-2.3243	18.785	8.444	-8.4438	-18.785	2.3244	72.181	47.437	-72.181	1.3555	27.169	43.44	-1.2798e-05	-1.0117e-05	1.2146e-05	-1.4703e-05
2.6	-11.471	4.8584	-4.8588	11.471	-2.3225	18.771	8.4375	-8.4373	-18.771	2.3226	72.149	47.401	-72.149	1.343	27.321	43.454	-1.3655e-05	-1.0165e-05	1.1154e-05	-1.4845e-05
2.605	-11.461	4.8543	-4.8546	11.461	-2.3206	18.755	8.4303	-8.4301	-18.755	2.3207	72.114	47.361	-72.114	1.33	27.486	43.468	-1.4021e-05	-1.0216e-05	1.0377e-05	-1.4987e-05
2.61	-11.45	4.8497	-4.85	11.451	-2.3184	18.737	8.4223	-8.4222	-18.737	2.3185	72.075	47.316	-72.075	1.3164	27.665	43.484	-1.4719e-05	-1.0266e-05	9.1877e-06	-1.5126e-05
